<svg width="64" height="64" viewBox="0 0 64 64" fill="none" xmlns="http://www.w3.org/2000/svg">
<path d="M22.2118 12.8002L19.2753 33.9202H36.3294L35.7082 38.7766H9.28001L12.4988 15.8496C12.6118 15.1719 12.7247 14.6072 12.8377 14.1555C12.9882 13.7037 13.2894 13.3649 13.7412 13.139C14.2306 12.9131 14.9835 12.8002 16 12.8002H22.2118Z" fill="#E9E9E9"/>
<path d="M33.4869 48.8658H37.6092C40.7716 48.8658 43.4445 48.7152 45.628 48.414C47.8116 48.1128 49.5998 47.5293 50.9927 46.6634C52.4233 45.7599 53.5527 44.4611 54.381 42.767C55.2469 41.0728 55.868 38.8328 56.2445 36.047C56.621 33.4117 56.6774 31.247 56.4139 29.5528C56.188 27.8211 55.6045 26.4846 54.6633 25.5434C53.7221 24.5646 52.3857 23.8681 50.6539 23.454C48.9221 23.0399 46.7575 22.814 44.1598 22.7764H40.4327H36.7057C35.4633 22.7764 34.2586 22.7952 33.0916 22.8328H29.9292C28.348 22.8705 27.2751 23.2093 26.7104 23.8493C26.1833 24.4893 25.788 25.5434 25.5998 27.0117C25.5371 27.1622 25.5245 27.4634 25.8257 27.4634C26.1269 27.4634 32.188 27.5011 35.181 27.5199C35.6309 27.4789 35.9716 27.4634 36.4233 27.4634H37.948C38.4751 27.4258 38.9833 27.407 39.4727 27.407H40.7716C42.2022 27.407 43.388 27.5011 44.3292 27.6893C45.2704 27.8399 45.9857 28.1975 46.4751 28.7622C46.9645 29.327 47.2469 30.1928 47.3221 31.3599C47.4351 32.527 47.3598 34.0893 47.0963 36.047C46.8704 37.5152 46.5692 38.7764 46.1927 39.8305C45.8163 40.847 45.2892 41.6752 44.6116 42.3152C43.9716 42.9552 43.1622 43.4258 42.1833 43.727C41.2045 44.0281 40.0186 44.1787 38.6257 44.1787H37.1575H35.4069C34.8422 44.1411 34.2963 44.1223 33.7692 44.1223H32.4704L23.4727 44.1787C23.3997 44.1725 23.2377 44.2729 23.1737 44.7246C22.9261 46.4734 22.7183 47.9258 22.588 48.8093H25.8069H29.5339C30.8139 48.847 32.1316 48.8658 33.4869 48.8658Z" fill="#E9E9E9"/>
<circle cx="32" cy="32" r="30.5" stroke="#E9E9E9" stroke-width="3"/>
</svg>
